<svg width="367" height="300" viewBox="0 0 367 300" fill="none" xmlns="http://www.w3.org/2000/svg">
<path d="M183.331 11.667L16.6641 99.167V300H349.997V99.167L183.331 11.667Z" fill="#E8EAF6"/>
<path d="M0 91.6667L183.333 0L366.667 91.6667V116.667V125L183.333 33.3333L0 125V116.667V91.6667Z" fill="#92802F"/>
<path d="M349.997 300H16.6641V258.334H349.997V300ZM183.331 51.6668L349.997 134.167V133.334V116.667L183.331 33.3335L16.6641 116.667V133.334V135L183.331 51.6668Z" fill="#C5CAE9"/>
<path d="M308.332 150H58.332V166.667H308.332V150Z" fill="#546E7A"/>
<path d="M308.332 166.667H58.332V300H308.332V166.667Z" fill="#455A64"/>
<path d="M308.332 166.667H58.332V183.333H308.332V166.667Z" fill="#90A4AE"/>
<path d="M308.332 183.333H291.665V166.667H308.332V183.333ZM74.9987 166.667H58.332V183.333H74.9987V166.667Z" fill="#78909C"/>
<path d="M208.332 91.6666H158.332V125H208.332V91.6666Z" fill="#263238"/>
<path d="M58.332 183.333V258.333V300L99.9987 258.333H266.665L308.332 300V258.333V183.333H58.332Z" fill="#263238"/>
</svg>
