<svg class="ldi-g55gy2" width="100%" height="100%" xmlns="http://www.w3.org/2000/svg" xmlns:xlink="http://www.w3.org/1999/xlink" viewBox="0 0 100 100" preserveAspectRatio="xMidYMid"><!--?xml version="1.0" encoding="utf-8"?--><!--Generator: Adobe Illustrator 21.0.0, SVG Export Plug-In . SVG Version: 6.00 Build 0)--><svg version="1.1" id="圖層_1" xmlns="http://www.w3.org/2000/svg" xmlns:xlink="http://www.w3.org/1999/xlink" x="0px" y="0px" viewBox="0 0 100 100" style="transform-origin: 50px 50px 0px;" xml:space="preserve"><g style="transform-origin: 50px 50px 0px;"><g style="transform-origin: 50px 50px 0px; transform: scale(1);"><g style="transform-origin: 50px 50px 0px; animation-duration: 4s; animation-delay: -4s; animation-direction: normal;" class=""><g><style type="text/css" class="ld ld-spin-fast" style="transform-origin: 50px 50px 0px; animation-duration: 4s; animation-delay: -4s; animation-direction: normal;">.st0{fill:#333333;} .st1{fill:#FFFFFF;stroke:#E15B64;stroke-width:9;stroke-miterlimit:10;} .st2{fill:#E0E0E0;} .st3{fill:#666666;} .st4{fill:#77A4BD;} .st5{fill:#FFFFFF;} .st6{fill:none;stroke:#E0E0E0;stroke-width:4.1492;stroke-linecap:round;stroke-linejoin:round;stroke-miterlimit:10;} .st7{fill:#E15B64;} .st8{fill:#FFFFFF;stroke:#E15B64;stroke-width:9.375;stroke-miterlimit:10;} .st9{fill:#FFFFFF;stroke:#333333;stroke-width:2.2676;stroke-miterlimit:10;} .st10{fill:#E0E0E0;stroke:#666666;stroke-width:4;stroke-miterlimit:10;} .st11{fill:#CCCCCC;} .st12{fill:none;stroke:#666666;stroke-width:3.8883;stroke-linecap:round;stroke-miterlimit:10;} .st13{fill:#E0E0E0;stroke:#E0E0E0;stroke-width:4.0031;stroke-linecap:round;stroke-miterlimit:10;} .st14{fill:none;stroke:#E0E0E0;stroke-width:4;stroke-linecap:round;stroke-miterlimit:10;} .st15{fill:#66503A;} .st16{fill:#849B87;} .st17{fill:none;stroke:#666666;stroke-width:2;stroke-linecap:round;stroke-miterlimit:10;} .st18{fill:#F47E60;} .st19{fill:#ABBD81;} .st20{fill:#F8B26A;} .st21{fill:none;stroke:#808080;stroke-width:2;stroke-linecap:round;stroke-miterlimit:10;} .st22{fill:#D50D01;} .st23{fill:#F5E6C8;} .st24{fill:#4D85AB;} .st25{fill:#F5E169;} .st26{fill:#FFFFFF;stroke:#000000;stroke-miterlimit:10;} .st27{fill:#E6E6E6;} .st28{stroke:#000000;stroke-miterlimit:10;} .st29{fill:#C33737;} .st30{fill:#FFFFFF;stroke:#E15B64;stroke-width:3;stroke-linecap:round;stroke-miterlimit:10;} .st31{fill:#808080;} .st32{fill:none;stroke:#E0E0E0;stroke-width:3;stroke-linecap:round;stroke-miterlimit:10;} .st33{fill:#666666;stroke:#FFFFFF;stroke-width:0.5834;stroke-linecap:round;stroke-miterlimit:10;} .st34{fill:none;stroke:#333333;stroke-width:4;stroke-linecap:round;stroke-miterlimit:10;} .st35{fill:#32517A;} .st36{fill:none;stroke:#E3CDB3;stroke-width:1.2;stroke-miterlimit:10;} .st37{fill:#E3CDB3;} .st38{fill:#849B87;stroke:#FFFFFF;stroke-width:1.5;stroke-miterlimit:10;} .st39{fill:none;stroke:#FFFFFF;stroke-width:4;stroke-miterlimit:10;} .st40{fill:#E15B64;stroke:#E0E0E0;stroke-width:3.3992;stroke-miterlimit:10;} .st41{fill:none;stroke:#E15B64;stroke-width:11.25;stroke-miterlimit:10;} .st42{fill:#FFFFFF;stroke:#E15B64;stroke-width:10;stroke-miterlimit:10;} .st43{fill:none;stroke:#E15B64;stroke-width:12;stroke-miterlimit:10;} .st44{fill:none;stroke:#333333;stroke-width:5;stroke-miterlimit:10;} .st45{fill:none;stroke:#333333;stroke-width:4.1855;stroke-miterlimit:10;} .st46{fill:#0071BC;stroke:#E15B64;stroke-width:9.375;stroke-miterlimit:10;} .st47{fill:#E15B64;stroke:#E15B64;stroke-width:9.375;stroke-miterlimit:10;} .st48{fill:none;stroke:#FFFFFF;stroke-width:10.6891;stroke-miterlimit:10;} .st49{fill:none;stroke:#E15B64;stroke-width:8;stroke-miterlimit:10;} .st50{fill:#FFFFFF;stroke:#333333;stroke-width:3.8549;stroke-miterlimit:10;} .st51{fill:none;stroke:#C33737;stroke-width:3.0839;stroke-linecap:round;stroke-linejoin:bevel;stroke-miterlimit:10;} .st52{fill:#A0C8D7;stroke:#77A4BD;stroke-width:2.5;stroke-miterlimit:10;} .st53{fill:#A0C8D7;} .st54{fill:none;stroke:#FFFFFF;stroke-width:3.6819;stroke-linecap:round;stroke-miterlimit:10;} .st55{opacity:0.5;fill:#666666;} .st56{fill:none;stroke:#333333;stroke-width:4.6651;stroke-miterlimit:10;} .st57{fill:#849B87;stroke:#FFFFFF;stroke-width:1.4326;stroke-miterlimit:10;} .st58{fill:none;stroke:#FFFFFF;stroke-width:2.5098;stroke-linecap:round;stroke-miterlimit:10;} .st59{fill:none;stroke:#FFFFFF;stroke-width:2.2296;stroke-linecap:round;stroke-miterlimit:10;} .st60{fill:none;stroke:#333333;stroke-width:1.7767;stroke-miterlimit:10;} .st61{fill:none;stroke:#FFFFFF;stroke-width:3.504;stroke-linecap:round;stroke-miterlimit:10;} .st62{fill:none;stroke:#FFFFFF;stroke-width:1.754;stroke-linecap:round;stroke-miterlimit:10;} .st63{fill:none;stroke:#333333;stroke-width:1.6297;stroke-miterlimit:10;} .st64{fill:none;stroke:#FFFFFF;stroke-width:1.6156;stroke-linecap:round;stroke-miterlimit:10;} .st65{fill:none;stroke:#333333;stroke-width:1.5011;stroke-miterlimit:10;} .st66{fill:#C2C2C2;} .st67{fill:none;stroke:#E0E0E0;stroke-width:4.0031;stroke-linecap:round;stroke-miterlimit:10;} .st68{fill:none;stroke:#666666;stroke-width:2.72;stroke-linecap:round;stroke-miterlimit:10;} .st69{fill:#F8B26A;stroke:#333333;stroke-width:3.0598;stroke-miterlimit:10;} .st70{fill:none;stroke:#FFFFFF;stroke-width:1.4118;stroke-linecap:round;stroke-miterlimit:10;} .st71{fill:none;stroke:#333333;stroke-width:4.3583;stroke-miterlimit:10;} .st72{fill:#77A4BD;stroke:#E0E0E0;stroke-width:3.2;stroke-miterlimit:10;} .st73{opacity:0.1;} .st74{fill:#E15B64;stroke:#E0E0E0;stroke-width:1.9832;stroke-miterlimit:10;} .st75{fill:none;stroke:#FFFFFF;stroke-width:2.3679;stroke-linecap:round;stroke-miterlimit:10;} .st76{fill:none;stroke:#A0C8D7;stroke-width:2.8855;stroke-linecap:round;stroke-miterlimit:10;} .st77{fill:none;stroke:#F8B26A;stroke-width:2.6943;stroke-linecap:round;stroke-miterlimit:10;} .st78{opacity:0.5;fill:#FFFFFF;} .st79{opacity:0.5;}</style><g class="ld ld-spin-fast" style="transform-origin: 50px 50px 0px; animation-duration: 4s; animation-delay: -3.66667s; animation-direction: normal;"><path class="st66" d="M81.2,46c-0.5-3.9-1.7-7.5-3.4-10.8C73.4,26.9,65.3,20.8,55.7,19c-1.8-0.3-3.7-0.5-5.7-0.5s-3.8,0.2-5.7,0.5 c-9.4,1.7-17.4,7.7-21.9,15.8c-1.8,3.3-3,6.9-3.6,10.8c-0.2,1.4-0.3,2.9-0.3,4.4c0,8.2,3.1,15.7,8.3,21.3c2.6,2.8,5.6,5.1,9,6.8 c4.3,2.2,9.1,3.4,14.2,3.4c4.7,0,9.1-1,13.1-2.8c3.5-1.6,6.6-3.8,9.3-6.5c5.6-5.7,9.1-13.5,9.1-22.2C81.5,48.7,81.4,47.3,81.2,46z M70.1,37.8l-8.1,2.6c-1.5,0.5-3,0.2-4.3-0.7c-1.3-0.9-2-2.3-2-3.9v-8.7C61.7,28.7,66.9,32.6,70.1,37.8z M45.8,47.4 c-0.4,1.3-1.8,2-3.2,1.6c-1.3-0.4-2-1.8-1.6-3.2c0.4-1.3,1.8-2,3.2-1.6C45.5,44.7,46.2,46.1,45.8,47.4z M43.5,52.7 c0.8-1.1,2.4-1.4,3.5-0.6c1.1,0.8,1.4,2.4,0.6,3.5c-0.8,1.1-2.4,1.4-3.5,0.6C42.9,55.4,42.6,53.8,43.5,52.7z M47.5,42.3 c0-1.4,1.1-2.5,2.5-2.5s2.5,1.1,2.5,2.5s-1.1,2.5-2.5,2.5S47.5,43.7,47.5,42.3z M51.8,52.6c1.1-0.8,2.7-0.6,3.5,0.6 c0.8,1.1,0.6,2.7-0.6,3.5c-1.1,0.8-2.7,0.6-3.5-0.6C50.5,54.9,50.7,53.4,51.8,52.6z M53.7,48c-0.4-1.3,0.3-2.7,1.6-3.2 c1.3-0.4,2.7,0.3,3.2,1.6c0.4,1.3-0.3,2.7-1.6,3.2C55.6,50.1,54.2,49.3,53.7,48z M44.3,27.2v8.2c0,1.5-0.7,3-2,3.9 c-1.3,0.9-2.8,1.2-4.3,0.7l-7.9-2.6C33.4,32.4,38.4,28.7,44.3,27.2z M26.5,50c0-0.6,0-1.3,0.1-1.9l7.5,2.4c1.5,0.5,2.6,1.6,3.1,3.1 c0.5,1.5,0.2,3-0.7,4.3l-4.9,6.7C28.4,60.6,26.5,55.5,26.5,50z M50,73.5c-3.3,0-6.5-0.7-9.4-2l4.8-6.6c0.9-1.3,2.3-2,3.9-2 c1.5,0,3,0.7,3.9,2l5.1,7C55.7,73,52.9,73.5,50,73.5z M67.6,65.6l-5-6.9c-0.9-1.3-1.2-2.8-0.7-4.3s1.6-2.6,3.1-3.1l8.5-2.8 c0,0.5,0,0.9,0,1.4C73.5,56,71.3,61.4,67.6,65.6z" fill="#8e8e8e" style="fill: rgb(142, 142, 142);"></path></g><g class="ld ld-spin-fast" style="transform-origin: 50px 50px 0px; animation-duration: 4s; animation-delay: -3.33333s; animation-direction: normal;"><path class="st0" d="M50,10c-22.1,0-40,17.9-40,40c0,22.1,17.9,40,40,40s40-17.9,40-40C90,27.9,72.1,10,50,10z M50,77.5 c-15.2,0-27.5-12.3-27.5-27.5c0-15.2,12.3-27.5,27.5-27.5S77.5,34.8,77.5,50C77.5,65.2,65.2,77.5,50,77.5z" fill="#dec343" style="fill: rgb(222, 195, 67);"></path></g><metadata xmlns:d="https://loading.io/stock/" class="ld ld-spin-fast" style="transform-origin: 50px 50px 0px; animation-duration: 4s; animation-delay: -3s; animation-direction: normal;">
<d:name class="ld ld-spin-fast" style="transform-origin: 50px 50px 0px; animation-duration: 4s; animation-delay: -2.66667s; animation-direction: normal;">wheel</d:name>
<d:tags class="ld ld-spin-fast" style="transform-origin: 50px 50px 0px; animation-duration: 4s; animation-delay: -2.33333s; animation-direction: normal;">tire,repair,spare,roll,maintain,car,drive,wheel,transportation</d:tags>
<d:license class="ld ld-spin-fast" style="transform-origin: 50px 50px 0px; animation-duration: 4s; animation-delay: -2s; animation-direction: normal;">cc-by</d:license>
<d:slug class="ld ld-spin-fast" style="transform-origin: 50px 50px 0px; animation-duration: 4s; animation-delay: -1.66667s; animation-direction: normal;">g55gy2</d:slug>
</metadata></g></g></g></g><style type="text/css" class="ld ld-spin-fast" style="transform-origin: 50px 50px 0px; animation-duration: 4s; animation-delay: -1.33333s; animation-direction: normal;">@keyframes ld-spin-fast {
  0% {
    -webkit-transform: rotate(0);
    transform: rotate(0);
    animation-timing-function: cubic-bezier(0.55, 0.055, 0.675, 0.19);
  }
  50% {
    -webkit-transform: rotate(900deg);
    transform: rotate(900deg);
    animation-timing-function: cubic-bezier(0.215, 0.61, 0.355, 1);
  }
  100% {
    -webkit-transform: rotate(1800deg);
    transform: rotate(1800deg);
  }
}
@-webkit-keyframes ld-spin-fast {
  0% {
    -webkit-transform: rotate(0);
    transform: rotate(0);
    animation-timing-function: cubic-bezier(0.55, 0.055, 0.675, 0.19);
  }
  50% {
    -webkit-transform: rotate(900deg);
    transform: rotate(900deg);
    animation-timing-function: cubic-bezier(0.215, 0.61, 0.355, 1);
  }
  100% {
    -webkit-transform: rotate(1800deg);
    transform: rotate(1800deg);
  }
}
.ld.ld-spin-fast {
  -webkit-animation: ld-spin-fast 1s infinite;
  animation: ld-spin-fast 1s infinite;
}
</style></svg></svg>