<svg width="56" height="85" viewBox="0 0 56 85" fill="none" xmlns="http://www.w3.org/2000/svg">
<g clip-path="url(#clip0)">
<path d="M28 0C13.307 0 0 11.9867 0 26.7773C0 48.7676 22.3195 51.0924 28 84.5376C33.6805 51.0924 56 48.7676 56 26.7773C56 11.9867 42.6965 0 28 0V0Z" fill="black"/>
<path d="M7.1185 32.8954H7.85653V29.3562H9.05901V28.7324H5.91602V29.3562H7.1185V32.8954Z" fill="white"/>
<path d="M15.0703 32.8954H15.7384V30.9922C15.7384 30.6039 15.6747 30.0501 15.6429 29.6681H15.6684L15.9992 30.6357L16.6863 32.5071H17.1253L17.8061 30.6357L18.1433 29.6681H18.1688C18.1306 30.0501 18.0733 30.6039 18.0733 30.9922V32.8954H18.7541V28.7324H17.9143L17.1953 30.7694C17.1063 31.0304 17.0235 31.3104 16.9345 31.5842H16.909C16.82 31.3104 16.7309 31.0304 16.6418 30.7694L15.9038 28.7324H15.0703V32.8954Z" fill="white"/>
<path d="M23.0425 32.9718C23.9778 32.9718 24.5377 32.4116 24.5377 31.7369C24.5377 31.1322 24.1877 30.8203 23.6978 30.6102L23.1316 30.3747C22.788 30.2346 22.4699 30.1137 22.4699 29.7891C22.4699 29.4835 22.7308 29.2989 23.1252 29.2989C23.4815 29.2989 23.7615 29.4326 24.0287 29.6554L24.4041 29.1843C24.0796 28.8597 23.6088 28.656 23.1252 28.656C22.3109 28.656 21.7255 29.1652 21.7255 29.8273C21.7255 30.4383 22.1582 30.763 22.5654 30.9348L23.138 31.1831C23.5133 31.3422 23.7806 31.4504 23.7806 31.7942C23.7806 32.1188 23.5261 32.3289 23.0553 32.3289C22.6735 32.3289 22.2727 32.1379 21.9737 31.8578L21.541 32.3607C21.9355 32.749 22.4826 32.9718 23.0425 32.9718V32.9718Z" fill="white"/>
<path d="M25.6699 32.8954H28.2403V32.2716H26.408V31.0431H27.9031V30.4193H26.408V29.3562H28.1767V28.7324H25.6699V32.8954Z" fill="white"/>
<path d="M29.4668 32.8954H30.2048V31.2659H30.8411L31.7382 32.8954H32.5653L31.5727 31.1577C32.069 30.9858 32.3998 30.6039 32.3998 29.9673C32.3998 29.038 31.7382 28.7324 30.8729 28.7324H29.4668V32.8954ZM30.2048 30.6803V29.3244H30.7965C31.3628 29.3244 31.6745 29.4899 31.6745 29.9673C31.6745 30.4384 31.3628 30.6803 30.7965 30.6803H30.2048Z" fill="white"/>
<path d="M34.3292 32.8954H35.2008L36.4924 28.7324H35.7352L35.1563 30.8267C35.029 31.2977 34.9336 31.7051 34.7936 32.1825H34.7682C34.6282 31.7051 34.5328 31.2977 34.3992 30.8267L33.8138 28.7324H33.0312L34.3292 32.8954Z" fill="white"/>
<path d="M37.3672 32.8954H38.1052V28.7324H37.3672V32.8954Z" fill="white"/>
<path d="M41.1933 32.9718C41.7277 32.9718 42.1667 32.7554 42.5039 32.3671L42.1095 31.9024C41.8741 32.157 41.5878 32.3289 41.2187 32.3289C40.5189 32.3289 40.0735 31.756 40.0735 30.8075C40.0735 29.8718 40.5571 29.2989 41.2378 29.2989C41.5623 29.2989 41.8104 29.4453 42.0268 29.6618L42.4212 29.1843C42.1604 28.9043 41.7405 28.656 41.2187 28.656C40.169 28.656 39.3164 29.4644 39.3164 30.8266C39.3164 32.2079 40.1435 32.9718 41.1933 32.9718V32.9718Z" fill="white"/>
<path d="M43.5762 32.8954H46.1466V32.2716H44.3142V31.0431H45.8094V30.4193H44.3142V29.3562H46.0829V28.7324H43.5762V32.8954Z" fill="white"/>
<path d="M48.5855 32.9718C49.5208 32.9718 50.0806 32.4116 50.0806 31.7369C50.0806 31.1322 49.7307 30.8203 49.2408 30.6102L48.6746 30.3747C48.331 30.2346 48.0129 30.1137 48.0129 29.7891C48.0129 29.4835 48.2737 29.2989 48.6682 29.2989C49.0245 29.2989 49.3044 29.4326 49.5717 29.6554L49.947 29.1843C49.6226 28.8597 49.1517 28.656 48.6682 28.656C47.8538 28.656 47.2685 29.1652 47.2685 29.8273C47.2685 30.4383 47.7011 30.763 48.1083 30.9348L48.6809 31.1831C49.0563 31.3422 49.3235 31.4504 49.3235 31.7942C49.3235 32.1188 49.069 32.3289 48.5982 32.3289C48.2165 32.3289 47.8157 32.1379 47.5166 31.8578L47.084 32.3607C47.4784 32.749 48.0256 32.9718 48.5855 32.9718V32.9718Z" fill="white"/>
<path d="M11.1728 30.6566C11.0108 30.8043 10.8915 30.952 10.815 31.0996C10.7402 31.2455 10.7028 31.3986 10.7028 31.559C10.7028 31.8252 10.7972 32.0467 10.9859 32.2235C11.1746 32.4004 11.4113 32.4888 11.6961 32.4888C11.8652 32.4888 12.0237 32.4605 12.1714 32.404C12.3192 32.3457 12.458 32.2582 12.5879 32.1415L11.1728 30.6566ZM11.5493 30.3503L12.9057 31.7723C13.0107 31.6101 13.0926 31.4369 13.1513 31.2528C13.2101 31.0668 13.2448 30.8699 13.2555 30.6621H13.7521C13.7308 30.9027 13.6738 31.1406 13.5812 31.3758C13.4887 31.611 13.3596 31.8434 13.1941 32.0731L13.939 32.8525H13.2662L12.8843 32.4505C12.6992 32.6128 12.5052 32.734 12.3022 32.8142C12.0993 32.8926 11.8813 32.9318 11.6481 32.9318C11.2191 32.9318 10.8684 32.8069 10.596 32.5572C10.3237 32.3056 10.1875 31.9838 10.1875 31.5918C10.1875 31.3585 10.2471 31.1397 10.3664 30.9355C10.4857 30.7295 10.6646 30.5363 10.9031 30.3558C10.8177 30.241 10.7527 30.127 10.7082 30.014C10.6637 29.8991 10.6414 29.787 10.6414 29.6776C10.6414 29.3823 10.7402 29.1453 10.9378 28.9666C11.1354 28.7862 11.398 28.6959 11.7255 28.6959C11.8732 28.6959 12.0201 28.7123 12.1661 28.7451C12.3138 28.778 12.4633 28.8272 12.6146 28.8928V29.3905C12.4598 29.3048 12.312 29.2401 12.1714 29.1964C12.0308 29.1508 11.8999 29.128 11.7789 29.128C11.592 29.128 11.4398 29.179 11.3223 29.2811C11.2066 29.3814 11.1487 29.5117 11.1487 29.6722C11.1487 29.7651 11.1746 29.859 11.2262 29.9538C11.2796 30.0468 11.3873 30.179 11.5493 30.3503V30.3503Z" fill="white"/>
<path d="M53.4074 29.2332C53.9339 27.6407 53.7897 25.843 52.9825 23.9383C52.6722 23.2061 52.6657 23.2013 52.2219 23.3684C51.1484 23.7726 48.9502 24.015 47.4492 23.8946C45.4342 23.733 44.3503 23.4925 41.8981 22.6632C39.0448 21.6981 37.7933 21.3579 35.8539 21.0202C31.2073 20.2109 27.1584 20.6201 21.2431 22.4969C20.0346 22.8803 18.8867 23.281 18.8281 23.3399C18.724 23.4447 18.9711 23.4084 20.1675 23.1433C23.4266 22.4209 25.461 22.0501 27.6557 21.7787C28.7803 21.6396 32.2901 21.6191 33.3784 21.7453C35.9426 22.0426 38.4457 22.6181 41.0602 23.5116C43.752 24.4315 45.6812 24.7971 47.8486 24.7984C49.3201 24.7992 50.8636 24.5748 51.929 24.205C52.2803 24.083 52.2833 24.0831 52.3889 24.2135C52.6802 24.5733 53.1636 26.066 53.2852 26.981C53.3725 27.6386 53.3266 28.738 53.1898 29.2631C53.0987 29.6128 53.1068 29.752 53.2144 29.6851C53.2446 29.6663 53.3314 29.4629 53.4074 29.2332V29.2332Z" fill="#DEC343" stroke="#DEC343"/>
<path d="M2.53251 28.4803L2.57891 27.8728L3.09331 27.5998C4.71018 26.7417 7.12511 25.936 9.23398 25.5509C11.128 25.2051 11.7093 25.1557 13.8636 25.1572C16.1567 25.1589 16.6935 25.2097 20.3258 25.7692C24.27 26.3767 25.5433 26.5206 27.5274 26.5834C31.0279 26.6941 34.188 26.1138 36.9975 24.8445C38.3368 24.2394 38.4655 24.0766 37.3225 24.4336C34.8098 25.2183 33.0174 25.5329 30.5816 25.6167C28.3483 25.6936 25.9283 25.4582 21.5796 24.7413C18.7308 24.2717 18.5863 24.2509 17.0267 24.0877C13.0845 23.6751 9.25709 24.2356 5.75811 25.7382C4.64893 26.2145 2.95361 27.1931 2.51274 27.6116L2.2832 27.8294L2.3224 28.3365C2.39932 29.3314 2.46411 29.3758 2.53251 28.4803V28.4803Z" fill="#DEC343" stroke="#DEC343"/>
</g>
<defs>
<clipPath id="clip0">
<rect width="56" height="84.5376" fill="white"/>
</clipPath>
</defs>
</svg>
