<svg width="236" height="268" viewBox="0 0 236 268" xmlns="http://www.w3.org/2000/svg">
    <path d="M69.7779 117.777L69.778 117.777L94.0003 93.5555L118.222 117.777C118.222 117.777 118.222 117.777 118.223 117.777C120.328 119.884 123.144 121 126 121C127.408 121 128.839 120.734 130.211 120.162C134.329 118.462 137 114.441 137 110V25.0001H205.999C208.756 25.0001 210.999 27.2427 210.999 30.0001V238C210.999 240.757 208.757 243 205.999 243H25.0001V25.0001H51.0001V110C51.0001 114.442 53.672 118.462 57.7903 120.163C61.9186 121.88 66.6284 120.926 69.7779 117.777ZM205.999 3H14C7.92129 3 3 7.92131 3 14V254C3 260.079 7.92133 265 14 265H206C220.891 265 233 252.891 233 238V30.0001C233 15.1087 220.891 3 205.999 3ZM115 25.0001V83.4453L101.777 70.223C97.4811 65.9266 90.5187 65.9266 86.2224 70.223L73.0002 83.4452V25.0001H115Z" stroke-width="6"/>
</svg>
