<svg width="224" height="256" viewBox="0 0 224 256" xmlns="http://www.w3.org/2000/svg">
   <path d="M199.999 0H8.00014C3.57827 0 0.00012207 3.57816 0.00012207 8.00004V248C0.00012207 252.422 3.57827 256 8.00014 256H200C213.234 256 224 245.234 224 232V24.0001C224 10.7657 213.234 0 199.999 0V0ZM112 16.0001V84.6879L93.6563 66.3443C90.5315 63.2195 85.4686 63.2195 82.3438 66.3443L64.0003 84.6879V16.0001H112ZM207.999 232C207.999 236.414 204.414 240 199.999 240H16.0002V16.0001H48.0002V104C48.0002 107.234 49.9458 110.156 52.9378 111.391C55.9379 112.641 59.3595 111.953 61.6568 109.656L88.0004 83.3129L114.344 109.656C115.875 111.188 117.922 112 120 112C121.031 112 122.07 111.805 123.062 111.391C126.054 110.157 128 107.234 128 104V16.0001H199.999C204.413 16.0001 207.999 19.5857 207.999 24.0001V232Z"/>
</svg>
