<svg width="496" height="496" viewBox="0 0 496 496" xmlns="http://www.w3.org/2000/svg">
<path fill-rule="evenodd" clip-rule="evenodd" d="M8 56C25.648 56 40 70.352 40 88C40 92.424 43.576 96 48 96C52.424 96 56 92.424 56 88C56 70.352 70.352 56 88 56C92.424 56 96 52.424 96 48C96 43.576 92.424 40 88 40C70.352 40 56 25.648 56 8C56 3.576 52.424 0 48 0C43.576 0 40 3.576 40 8C40 25.648 25.648 40 8 40C3.576 40 0 43.576 0 48C0 52.424 3.576 56 8 56ZM48 34.504C51.552 39.848 56.152 44.448 61.496 48C56.152 51.552 51.552 56.152 48 61.496C44.448 56.152 39.848 51.552 34.504 48C39.848 44.448 44.448 39.848 48 34.504ZM496 328C496 359.12 487.336 388.192 472.528 413.216L483.72 424.408C491.64 432.328 496 442.864 496 454.064C496 477.184 477.184 496 454.064 496C442.864 496 432.328 491.64 424.408 483.72L413.216 472.528C388.192 487.336 359.12 496 328 496C296.88 496 267.808 487.336 242.784 472.528L231.592 483.72C223.672 491.64 213.136 496 201.936 496C178.816 496 160 477.184 160 454.064C160 442.856 164.36 432.328 172.28 424.408L183.472 413.216C168.664 388.192 160 359.12 160 328C160 313.528 162.032 299.552 165.488 286.144L6.496 255.856C2.728 255.144 0 251.84 0 248V168C0 163.576 3.576 160 8 160H220L270.4 92.808C283.92 74.768 305.456 64 328 64H384C406.056 64 424 81.944 424 104V112.808C442.232 116.528 456 132.688 456 152V219.456C480.896 248.76 496 286.624 496 328ZM328 80C310.464 80 293.72 88.376 283.192 102.4L239.992 160H328C371.048 160 410.24 176.416 440 203.136V152C440 138.768 429.232 128 416 128H352V112H408V104C408 90.768 397.232 80 384 80H328ZM48 176H16V241.384L48 247.48V176ZM64 176V250.528L170.256 270.76C185.504 228.88 216.872 194.808 256.912 176H64ZM201.936 480C208.864 480 215.384 477.304 220.28 472.408L229.152 463.536C215.104 453.264 202.736 440.896 192.464 426.848L183.592 435.72C178.696 440.616 176 447.136 176 454.064C176 468.368 187.632 480 201.936 480ZM328 176C244.184 176 176 244.184 176 328C176 411.816 244.184 480 328 480C411.816 480 480 411.816 480 328C480 244.184 411.816 176 328 176ZM435.72 472.408C440.616 477.304 447.136 480 454.064 480C468.368 480 480 468.368 480 454.064C480 447.136 477.304 440.616 472.408 435.72L463.536 426.848C453.264 440.896 440.896 453.264 426.848 463.536L435.72 472.408ZM240 328C240 376.52 279.48 416 328 416C346.56 416 364.312 410.288 379.328 399.496L388.672 412.48C370.92 425.248 349.936 432 328 432C270.656 432 224 385.344 224 328C224 306.064 230.752 285.08 243.52 267.328L256.504 276.672C245.712 291.688 240 309.44 240 328ZM328 224C306.064 224 285.08 230.752 267.328 243.52L276.672 256.504C291.688 245.712 309.44 240 328 240C376.52 240 416 279.48 416 328C416 346.56 410.288 364.312 399.496 379.328L412.48 388.672C425.248 370.92 432 349.936 432 328C432 270.656 385.344 224 328 224ZM328 272C358.872 272 384 297.128 384 328C384 358.872 358.872 384 328 384C297.128 384 272 358.872 272 328C272 297.128 297.128 272 328 272ZM328 288C305.944 288 288 305.944 288 328C288 350.056 305.944 368 328 368C350.056 368 368 350.056 368 328C368 305.944 350.056 288 328 288ZM200 88C200 70.352 185.648 56 168 56C163.576 56 160 52.424 160 48C160 43.576 163.576 40 168 40C185.648 40 200 25.648 200 8C200 3.576 203.576 0 208 0C212.424 0 216 3.576 216 8C216 25.648 230.352 40 248 40C252.424 40 256 43.576 256 48C256 52.424 252.424 56 248 56C230.352 56 216 70.352 216 88C216 92.424 212.424 96 208 96C203.576 96 200 92.424 200 88ZM221.496 48C216.152 44.448 211.552 39.848 208 34.504C204.448 39.848 199.848 44.448 194.504 48C199.848 51.552 204.448 56.152 208 61.496C211.552 56.152 216.152 51.552 221.496 48Z"/>
</svg>
