<svg width="496" height="496" viewBox="0 0 496 496" xmlns="http://www.w3.org/2000/svg">
    <path fill-rule="evenodd" clip-rule="evenodd" d="M439.512 428.2C447.128 435.816 457.24 440 468 440C483.44 440 496 452.56 496 468C496 483.44 483.44 496 468 496H288C261.528 496 240 474.472 240 448C240 430.352 225.648 416 208 416H88V400H208C234.472 400 256 421.528 256 448C256 465.648 270.352 480 288 480H468C474.616 480 480 474.616 480 468C480 461.384 474.616 456 468 456C452.968 456 438.832 450.152 428.2 439.512L392 403.312L381.656 413.656C380.096 415.216 378.048 416 376 416C373.952 416 371.904 415.216 370.344 413.656L268 311.312L261.656 317.656C260.096 319.216 258.048 320 256 320C253.952 320 251.904 319.216 250.344 317.656L220.392 287.704C199.28 298.336 175.792 304 152 304C68.184 304 0 235.816 0 152C0 68.184 68.184 0 152 0C235.816 0 304 68.184 304 152C304 175.792 298.336 199.28 287.704 220.392L317.656 250.344C320.784 253.472 320.784 258.528 317.656 261.656L311.312 268L413.656 370.344C416.784 373.472 416.784 378.528 413.656 381.656L403.312 392L439.512 428.2ZM16 152C16 226.992 77.008 288 152 288C171.512 288 190.792 283.744 208.408 275.72L175.816 243.128C165.752 251.464 153.224 256 140 256C124.968 256 110.832 250.152 100.2 239.512L58.344 197.656C55.216 194.528 55.216 189.472 58.344 186.344L64.12 180.568C58.896 169.136 56 156.656 56 144C56 95.48 95.48 56 144 56C156.648 56 169.128 58.896 180.56 64.128L186.344 58.344C189.472 55.216 194.528 55.216 197.656 58.344L239.512 100.2C250.152 110.832 256 124.968 256 140C256 153.224 251.464 165.752 243.128 175.816L275.72 208.408C283.744 190.792 288 171.512 288 152C288 77.008 226.992 16 152 16C77.008 16 16 77.008 16 152ZM144 72C104.296 72 72 104.296 72 144C72 152.336 73.544 160.576 76.336 168.352L88.688 156L82.344 149.656C79.216 146.528 79.216 141.472 82.344 138.344L138.344 82.344C141.472 79.216 146.528 79.216 149.656 82.344L156 88.688L168.352 76.336C160.568 73.536 152.328 72 144 72ZM164.32 231.632L100 167.312L75.312 192L111.512 228.2C119.128 235.816 129.24 240 140 240C148.936 240 157.336 236.968 164.32 231.632ZM144 99.312L99.312 144L176 220.688L220.688 176L144 99.312ZM192 75.312L167.312 100L231.632 164.32C236.968 157.336 240 148.936 240 140C240 129.24 235.816 119.128 228.2 111.512L192 75.312ZM232 187.312L187.312 232L256 300.688L300.688 256L232 187.312ZM279.312 300L376 396.688L396.688 376L300 279.312L279.312 300ZM376 248C376 230.352 361.648 216 344 216C339.576 216 336 212.424 336 208C336 203.576 339.576 200 344 200C361.648 200 376 185.648 376 168C376 163.576 379.576 160 384 160C388.424 160 392 163.576 392 168C392 185.648 406.352 200 424 200C428.424 200 432 203.576 432 208C432 212.424 428.424 216 424 216C406.352 216 392 230.352 392 248C392 252.424 388.424 256 384 256C379.576 256 376 252.424 376 248ZM397.496 208C392.152 204.44 387.552 199.848 384 194.504C380.448 199.848 375.848 204.448 370.504 208C375.848 211.56 380.448 216.152 384 221.496C387.56 216.152 392.152 211.552 397.496 208ZM96 352C96 347.576 92.424 344 88 344C70.352 344 56 329.648 56 312C56 307.576 52.424 304 48 304C43.576 304 40 307.576 40 312C40 329.648 25.648 344 8 344C3.576 344 0 347.576 0 352C0 356.424 3.576 360 8 360C25.648 360 40 374.352 40 392C40 396.424 43.576 400 48 400C52.424 400 56 396.424 56 392C56 374.352 70.352 360 88 360C92.424 360 96 356.424 96 352ZM48 365.496C44.448 360.152 39.848 355.552 34.504 352C39.848 348.448 44.448 343.848 48 338.504C51.552 343.848 56.152 348.448 61.496 352C56.152 355.552 51.552 360.152 48 365.496ZM440 88C440 70.352 425.648 56 408 56C403.576 56 400 52.424 400 48C400 43.576 403.576 40 408 40C425.648 40 440 25.648 440 8C440 3.576 443.576 0 448 0C452.424 0 456 3.576 456 8C456 25.648 470.352 40 488 40C492.424 40 496 43.576 496 48C496 52.424 492.424 56 488 56C470.352 56 456 70.352 456 88C456 92.424 452.424 96 448 96C443.576 96 440 92.424 440 88ZM461.496 48C456.152 44.448 451.552 39.848 448 34.504C444.448 39.848 439.848 44.448 434.504 48C439.848 51.552 444.448 56.152 448 61.496C451.552 56.152 456.152 51.552 461.496 48Z"/>
</svg>
