<svg width="496" height="496" viewBox="0 0 496 496" xmlns="http://www.w3.org/2000/svg">
<path fill-rule="evenodd" clip-rule="evenodd" d="M320 144C333.232 144 344 133.232 344 120C344 106.768 333.232 96 320 96H272V64H288V72C288 76.416 291.576 80 296 80H328C332.424 80 336 76.416 336 72V64H408V88C408 92.416 411.576 96 416 96H448C452.424 96 456 92.416 456 88V24C456 19.584 452.424 16 448 16H416H336V8C336 3.584 332.424 0 328 0H296C291.576 0 288 3.584 288 8V16H248C225.944 16 208 33.944 208 56C208 60.416 211.576 64 216 64H224V96H176C162.768 96 152 106.768 152 120C152 133.232 162.768 144 176 144H320ZM440 80H424V56V32H440V80ZM408 32V48H336V32H408ZM304 16H320V64H304V56V24V16ZM248 32H288V48H225.368C228.672 38.688 237.568 32 248 32ZM256 64V96H240V64H256ZM320 112C324.416 112 328 115.592 328 120C328 124.408 324.416 128 320 128H176C171.584 128 168 124.408 168 120C168 115.592 171.584 112 176 112H320ZM496 248V280C496 284.416 492.424 288 488 288H453.624L493.2 321.928C494.976 323.448 496 325.664 496 328V392C496 407.208 489.88 421.008 480 431.112V472C480 485.232 469.232 496 456 496H392C378.768 496 368 485.232 368 472V448H128V472C128 485.232 117.232 496 104 496H40C26.768 496 16 485.232 16 472V431.112C6.12 421.016 0 407.216 0 392V328C0 325.664 1.024 323.448 2.8 321.928L42.376 288H8C3.576 288 0 284.416 0 280V248C0 243.584 3.576 240 8 240H56C59.032 240 61.8 241.712 63.152 244.424L68.736 255.584L107.232 188.216C117.176 170.816 135.808 160 155.856 160H340.144C360.184 160 378.824 170.816 388.76 188.216L427.256 255.584L432.84 244.424C434.2 241.712 436.968 240 440 240H488C492.424 240 496 243.584 496 248ZM155.856 176C141.536 176 128.232 183.72 121.128 196.152L77.784 272H91.472L127.824 211.416C135.008 199.44 148.152 192 162.12 192H333.88C347.848 192 360.992 199.44 368.176 211.416L404.528 272H418.216L374.872 196.152C367.76 183.72 354.456 176 340.136 176H155.856ZM110.128 272H385.872L354.464 219.656C350.152 212.464 342.272 208 333.888 208H162.12C153.736 208 145.848 212.464 141.536 219.656L110.128 272ZM51.056 256H16V272H59.056L51.056 256ZM120.784 360.52L77.872 336H16V368H109.576L120.784 360.52ZM104 480C108.416 480 112 476.408 112 472V448H56C47.408 448 39.288 445.992 32 442.52V472C32 476.408 35.584 480 40 480H104ZM171.312 416L155.312 432H340.688L324.688 416H171.312ZM384 472C384 476.408 387.584 480 392 480H456C460.416 480 464 476.408 464 472V442.52C456.712 445.992 448.592 448 440 448H384V472ZM386.424 368H480V336H418.128L375.216 360.52L386.424 368ZM416 320H466.376L429.04 288H424H72H66.96L29.624 320H80C81.392 320 82.76 320.36 83.968 321.056L139.968 353.056C142.376 354.432 143.896 356.952 143.992 359.728C144.096 362.496 142.744 365.12 140.44 366.656L116.44 382.656C115.128 383.528 113.576 384 112 384H16V392C16 414.056 33.944 432 56 432H132.688L162.344 402.344C163.84 400.84 165.872 400 168 400H328C330.128 400 332.16 400.84 333.656 402.344L363.312 432H440C462.056 432 480 414.056 480 392V384H384C382.424 384 380.872 383.528 379.56 382.656L355.56 366.656C353.256 365.12 351.904 362.496 352.008 359.728C352.104 356.952 353.624 354.432 356.032 353.056L412.032 321.056C413.24 320.36 414.608 320 416 320ZM436.944 272H480V256H444.944L436.944 272ZM328 336H168C163.576 336 160 339.584 160 344V376C160 380.416 163.576 384 168 384H328C332.424 384 336 380.416 336 376V344C336 339.584 332.424 336 328 336ZM176 368V352H320V368H176ZM48 416V400H64V416H48ZM408 112H360V128H408V112ZM357.378 151.398L362.434 136.214L410.454 152.204L405.398 167.388L357.378 151.398ZM136 112H88V128H136V112ZM85.4502 152.506L133.47 136.516L138.526 151.7L90.5062 167.69L85.4502 152.506ZM448 416V400H432V416H448Z"/>
</svg>
