<svg width="496" height="496" viewBox="0 0 496 496" xmlns="http://www.w3.org/2000/svg">
<path fill-rule="evenodd" clip-rule="evenodd" d="M420.912 353.584C428.152 339.216 432 323.408 432 307.16C432 283.216 429.216 259.256 423.736 235.952L405.592 158.848C401.32 140.68 385.312 128 366.656 128H359.792C352.48 118.344 341.008 112 328 112H304V96H312C325.232 96 336 85.232 336 72V24C336 10.768 325.232 0 312 0H184C170.768 0 160 10.768 160 24V72C160 85.232 170.768 96 184 96H192V112H168C154.984 112 143.512 118.344 136.208 128H129.344C110.688 128 94.68 140.68 90.408 158.832L72.264 235.944C66.784 259.248 64 283.208 64 307.16C64 323.408 67.848 339.224 75.088 353.584C50.512 359.696 32 382.92 32 410.016V430.704C32 437.728 33.128 444.672 35.352 451.352C44.256 478.056 69.152 496 97.296 496H398.704C426.856 496 451.744 478.056 460.656 451.344C462.872 444.672 464 437.728 464 430.704V410.016C464 382.92 445.488 359.696 420.912 353.584ZM176 72V24C176 19.584 179.584 16 184 16H312C316.416 16 320 19.584 320 24V72C320 76.416 316.416 80 312 80H184C179.584 80 176 76.416 176 72ZM208 96H288V112H208V96ZM87.84 239.608L105.984 162.496C108.504 151.784 117.848 144.288 128.8 144.04C128.28 146.616 128 149.28 128 152V192H144V152C144 138.768 154.768 128 168 128H328C341.232 128 352 138.768 352 152V192H368V152C368 149.28 367.72 146.616 367.192 144.048C378.152 144.296 387.488 151.792 390.008 162.512L408.152 239.624C413.352 261.728 415.992 284.456 415.992 307.16C415.992 323.128 411.608 338.616 403.384 352.224C390.496 353.288 378.424 358.648 368.992 367.808C359.592 376.928 353.848 388.72 352.384 401.52C344.232 396.784 335.6 392.928 326.624 390.08C322.304 361.432 320 332.312 320 303.336V144H304V303.336C304 330.92 306.048 358.624 309.872 385.96C302.664 384.696 295.344 384 288 384H208C200.656 384 193.336 384.696 186.128 385.96C189.952 358.624 192 330.92 192 303.336V144H176V303.336C176 332.312 173.696 361.432 169.36 390.08C160.384 392.928 151.752 396.784 143.6 401.52C142.136 388.72 136.392 376.92 126.992 367.808C117.552 358.656 105.624 353.36 92.624 352.256C84.384 338.632 80 323.136 80 307.16C80 284.448 82.64 261.72 87.84 239.608ZM448 430.704C448 436.008 447.152 441.256 445.48 446.288C438.752 466.456 419.952 480 398.704 480H97.296C76.048 480 57.248 466.456 50.528 446.296C48.848 441.256 48 436.008 48 430.704V410.016C48 387.504 65.392 368.664 86.768 368.024C97.664 367.664 108.024 371.696 115.856 379.288C123.688 386.888 128 397.088 128 408V424C128 446.056 145.944 464 168 464H184V448H168C154.768 448 144 437.232 144 424V420.192C162.688 407.192 185.224 400 208 400H288C310.776 400 333.312 407.192 352 420.192V424C352 437.232 341.232 448 328 448H312V464H328C350.056 464 368 446.056 368 424V408C368 397.088 372.312 386.888 380.152 379.288C387.984 371.696 398.384 367.68 409.24 368.024C430.608 368.664 448 387.504 448 410.016V430.704ZM488 40C470.352 40 456 25.648 456 8C456 3.576 452.424 0 448 0C443.576 0 440 3.576 440 8C440 25.648 425.648 40 408 40C403.576 40 400 43.576 400 48C400 52.424 403.576 56 408 56C425.648 56 440 70.352 440 88C440 92.424 443.576 96 448 96C452.424 96 456 92.424 456 88C456 70.352 470.352 56 488 56C492.424 56 496 52.424 496 48C496 43.576 492.424 40 488 40ZM448 61.496C444.448 56.152 439.848 51.552 434.504 48C439.848 44.448 444.448 39.848 448 34.504C451.552 39.848 456.152 44.448 461.496 48C456.152 51.552 451.552 56.152 448 61.496ZM56 160C56 164.424 52.424 168 48 168C43.576 168 40 164.424 40 160C40 142.352 25.648 128 8 128C3.576 128 0 124.424 0 120C0 115.576 3.576 112 8 112C25.648 112 40 97.648 40 80C40 75.576 43.576 72 48 72C52.424 72 56 75.576 56 80C56 97.648 70.352 112 88 112C92.424 112 96 115.576 96 120C96 124.424 92.424 128 88 128C70.352 128 56 142.352 56 160ZM61.496 120C56.152 116.448 51.552 111.848 48 106.504C44.448 111.848 39.848 116.448 34.504 120C39.848 123.552 44.448 128.152 48 133.496C51.552 128.152 56.152 123.552 61.496 120Z"/>
</svg>
