<svg width="512" height="512" viewBox="0 0 512 512" xmlns="http://www.w3.org/2000/svg">
    <path fill-rule="evenodd" clip-rule="evenodd" d="M71.823 0H504.5C508.643 0 512 3.35803 512 7.5V44.347C512 48.489 508.643 51.847 504.5 51.847H465.864V70.723C465.864 74.865 462.507 78.223 458.364 78.223C454.221 78.223 450.864 74.865 450.864 70.723V51.847H408.046V65.723C408.046 69.865 404.689 73.223 400.546 73.223C396.403 73.223 393.046 69.865 393.046 65.723V51.847H350.227V70.723C350.227 74.865 346.87 78.223 342.727 78.223C338.584 78.223 335.227 74.865 335.227 70.723V51.847H292.408V65.723C292.408 69.865 289.051 73.223 284.908 73.223C280.765 73.223 277.408 69.865 277.408 65.723V51.847H234.59V65.723C234.59 69.865 231.233 73.223 227.09 73.223C222.947 73.223 219.59 69.865 219.59 65.723V51.847H176.771V70.723C176.771 74.865 173.414 78.223 169.271 78.223C165.128 78.223 161.771 74.865 161.771 70.723V51.847H118.952V65.723C118.952 69.865 115.595 73.223 111.452 73.223C107.309 73.223 103.952 69.865 103.952 65.723V51.847H61.134V70.723C61.134 74.865 57.777 78.223 53.634 78.223C49.491 78.223 46.134 74.865 46.134 70.723V51.847H7.5C3.35706 51.847 0 48.489 0 44.347V7.5C0 3.35803 3.35706 0 7.5 0H36.823C40.9659 0 44.323 3.35803 44.323 7.5C44.323 11.642 40.9659 15 36.823 15H15V36.847H497V15H71.823C67.6801 15 64.323 11.642 64.323 7.5C64.323 3.35803 67.6801 0 71.823 0ZM496.358 326.57L500.358 403.291C507.172 406.006 512 412.67 511.999 420.441V450.268C511.999 460.443 503.721 468.721 493.546 468.721H484.18V488.868C484.18 501.623 473.803 512 461.048 512H405.024C392.27 512 381.893 501.623 381.893 488.868V468.721H130.107V488.868C130.107 501.623 119.73 512 106.975 512H50.951C38.196 512 27.819 501.623 27.819 488.868V468.721H18.453C8.27795 468.721 0 460.443 0 450.268V420.441C0 412.67 4.828 406.006 11.641 403.291L15.641 326.57C16.568 308.798 24.844 293.084 37.434 282.312H36.7061C21.183 282.312 8.55298 269.683 8.55298 254.159C8.55298 238.635 21.183 226.006 36.7061 226.006H60.36C70.392 226.006 79.261 231.08 84.536 238.797L100.692 181.782C108.106 155.621 132.273 137.35 159.463 137.35H352.538C379.729 137.35 403.896 155.622 411.309 181.783L427.464 238.797C432.739 231.08 441.608 226.006 451.64 226.006H475.294C490.817 226.006 503.446 238.635 503.446 254.159C503.446 269.683 490.817 282.312 475.294 282.312H474.565C487.155 293.084 495.431 308.797 496.358 326.57ZM451.64 241.004C443.773 241.004 437.374 247.404 437.374 255.27V267.31H475.295C482.547 267.31 488.447 261.41 488.447 254.157C488.447 246.904 482.547 241.004 475.295 241.004H451.64ZM159.463 152.349C138.949 152.349 120.717 166.133 115.124 185.87L92.047 267.31H113.924L135.904 189.743C138.632 180.117 147.524 173.394 157.529 173.394H175.755C179.898 173.394 183.255 176.752 183.255 180.894C183.255 185.036 179.898 188.394 175.755 188.394H157.529C154.201 188.394 151.243 190.63 150.336 193.832L129.516 267.31H172.648L209.651 230.307L195.083 215.739C192.154 212.811 192.154 208.062 195.083 205.133C198.013 202.203 202.761 202.204 205.69 205.133L225.552 224.995L225.557 225L225.559 225.002L225.561 225.004C225.564 225.008 225.567 225.011 225.57 225.014L246.283 245.728C249.212 248.656 249.212 253.405 246.283 256.334C244.818 257.799 242.898 258.531 240.979 258.531C239.059 258.531 237.14 257.799 235.675 256.334L220.256 240.915L193.86 267.311H270.975L307.978 230.308L293.41 215.74C290.481 212.812 290.481 208.063 293.41 205.134C296.339 202.204 301.087 202.205 304.017 205.134L323.879 224.996L323.885 225.001C323.886 225.002 323.887 225.003 323.888 225.005L323.89 225.008C323.892 225.01 323.894 225.012 323.896 225.014L323.897 225.015L344.61 245.729C347.539 248.657 347.539 253.406 344.61 256.335C343.145 257.8 341.225 258.532 339.306 258.532C337.386 258.532 335.467 257.8 334.002 256.335L318.583 240.916L292.187 267.312H382.487L361.667 193.834C360.76 190.632 357.802 188.396 354.474 188.396H210.753C206.61 188.396 203.253 185.038 203.253 180.896C203.253 176.754 206.61 173.396 210.753 173.396H354.473C364.478 173.396 373.37 180.119 376.098 189.745L398.077 267.311H419.953L396.877 185.87C391.284 166.134 373.051 152.349 352.537 152.349H159.463ZM36.7061 241.005C29.453 241.005 23.553 246.905 23.553 254.158C23.553 261.411 29.453 267.311 36.7061 267.312H74.626V255.271C74.626 247.404 68.226 241.005 60.36 241.005H36.7061ZM15 420.441V450.268C15 452.172 16.549 453.721 18.453 453.721H178.107V416.988H18.453C16.549 416.988 15 418.537 15 420.441ZM86.22 497V468.721H71.707V497H86.22ZM42.819 468.721V488.868C42.819 493.352 46.467 497 50.951 497H56.707V468.721H42.819ZM106.975 497C111.46 497 115.107 493.352 115.107 488.868V468.721H101.219V497H106.975ZM193.107 416.988V453.721H318.891V416.988H193.107ZM396.894 468.721V488.868C396.894 493.352 400.541 497 405.025 497H410.781V468.721H396.894ZM440.293 497V468.721H425.78V497H440.293ZM461.049 497C465.534 497 469.181 493.352 469.181 488.868V468.721H455.293V497H461.049ZM493.547 453.721C495.451 453.721 497 452.172 497 450.268H496.998V420.441C496.998 418.537 495.449 416.988 493.545 416.988H476.68C472.537 416.988 469.18 413.63 469.18 409.488C469.18 405.346 472.537 401.988 476.68 401.988H485.268L481.377 327.351C480.061 302.095 459.218 282.311 433.928 282.311H78.071C52.781 282.311 31.938 302.095 30.6219 327.351L26.731 401.988H441.682C445.825 401.988 449.182 405.346 449.182 409.488C449.182 413.63 445.825 416.988 441.682 416.988H333.892V453.721H493.547ZM213.968 427.854H229.18C233.322 427.854 236.68 431.212 236.68 435.354C236.68 439.496 233.323 442.854 229.18 442.854H213.968C209.825 442.854 206.468 439.496 206.468 435.354C206.468 431.212 209.825 427.854 213.968 427.854ZM298.032 427.854H255.528C251.385 427.854 248.028 431.212 248.028 435.354C248.028 439.496 251.385 442.854 255.528 442.854H298.032C302.175 442.854 305.532 439.496 305.532 435.354C305.532 431.212 302.175 427.854 298.032 427.854ZM65.318 312.562H155.73C159.873 312.562 163.23 315.92 163.23 320.062V372.019C163.23 376.161 159.873 379.519 155.73 379.519H89.655C72.1 379.519 57.818 365.238 57.818 347.683V320.062C57.818 315.92 61.175 312.562 65.318 312.562ZM72.818 327.562V347.683C72.818 356.966 80.371 364.519 89.655 364.519H92.135V327.562H72.818ZM107.135 364.519H148.23V327.562H107.135V364.519ZM446.682 312.562H356.271C352.128 312.562 348.771 315.92 348.771 320.062V372.019C348.771 376.161 352.128 379.519 356.271 379.519H422.345C439.9 379.519 454.182 365.237 454.182 347.683V320.062C454.182 315.92 450.824 312.562 446.682 312.562ZM363.771 327.562H404.866V364.519H363.771V327.562ZM439.182 347.683C439.182 356.967 431.629 364.519 422.345 364.519H419.866V327.562H439.182V347.683ZM187.973 309.217H324.026C328.169 309.217 331.526 312.575 331.526 316.717V334.584C331.526 362.242 309.025 384.743 281.367 384.743H230.632C202.974 384.743 180.473 362.242 180.473 334.584V316.717C180.473 312.575 183.83 309.217 187.973 309.217ZM281.367 369.743C300.754 369.743 316.526 353.971 316.526 334.584H316.527V324.217H195.473V334.584C195.473 353.971 211.245 369.743 230.632 369.743H281.367ZM236.57 353.342H275.429C279.572 353.342 282.929 349.984 282.929 345.842C282.929 341.7 279.572 338.342 275.429 338.342H236.57C232.427 338.342 229.07 341.7 229.07 345.842C229.07 349.984 232.428 353.342 236.57 353.342ZM53.634 129.599C57.777 129.599 61.134 126.241 61.134 122.099V101.723C61.134 97.5811 57.777 94.223 53.634 94.223C49.491 94.223 46.134 97.5811 46.134 101.723V122.099C46.134 126.241 49.491 129.599 53.634 129.599ZM53.634 180.975C49.491 180.975 46.134 177.617 46.134 173.475V152.099C46.134 147.957 49.491 144.599 53.634 144.599C57.777 144.599 61.134 147.957 61.134 152.099V173.475C61.134 177.617 57.777 180.975 53.634 180.975ZM118.952 122.099V95.723C118.952 91.5811 115.595 88.223 111.452 88.223C107.309 88.223 103.952 91.5811 103.952 95.723V122.099C103.952 126.241 107.309 129.599 111.452 129.599C115.595 129.599 118.952 126.241 118.952 122.099ZM176.771 101.723V118.958C176.771 123.1 173.414 126.458 169.271 126.458C165.128 126.458 161.771 123.1 161.771 118.958V101.723C161.771 97.5811 165.128 94.223 169.271 94.223C173.414 94.223 176.771 97.5811 176.771 101.723ZM234.591 118.958V95.723C234.591 91.5811 231.234 88.223 227.091 88.223C222.948 88.223 219.591 91.5811 219.591 95.723V118.958C219.591 123.1 222.948 126.458 227.091 126.458C231.234 126.458 234.591 123.1 234.591 118.958ZM292.409 95.723V118.958C292.409 123.1 289.052 126.458 284.909 126.458C280.766 126.458 277.409 123.1 277.409 118.958V95.723C277.409 91.5811 280.766 88.223 284.909 88.223C289.052 88.223 292.409 91.5811 292.409 95.723ZM350.229 118.958V101.723C350.229 97.5811 346.872 94.223 342.729 94.223C338.586 94.223 335.229 97.5811 335.229 101.723V118.958C335.229 123.1 338.586 126.458 342.729 126.458C346.872 126.458 350.229 123.1 350.229 118.958ZM408.048 95.723V122.099C408.048 126.241 404.691 129.599 400.548 129.599C396.405 129.599 393.048 126.241 393.048 122.099V95.723C393.048 91.5811 396.405 88.223 400.548 88.223C404.691 88.223 408.048 91.5811 408.048 95.723ZM458.366 129.599C462.509 129.599 465.866 126.241 465.866 122.099V101.723C465.866 97.5811 462.509 94.223 458.366 94.223C454.223 94.223 450.866 97.5811 450.866 101.723V122.099C450.866 126.241 454.224 129.599 458.366 129.599ZM458.366 180.975C454.223 180.975 450.866 177.617 450.866 173.475V152.099C450.866 147.957 454.223 144.599 458.366 144.599C462.509 144.599 465.866 147.957 465.866 152.099V173.475C465.866 177.617 462.509 180.975 458.366 180.975Z"/>
</svg>
