<svg version="1.1" xmlns="http://www.w3.org/2000/svg" xmlns:xlink="http://www.w3.org/1999/xlink" viewBox="0 0 172 172"><g transform="translate(0.516,0.516) scale(0.994,0.994)"><g stroke-linecap="butt" stroke-linejoin="none" stroke-miterlimit="10" stroke-dasharray="" stroke-dashoffset="0" font-family="none" font-weight="none" font-size="none" text-anchor="none" style="mix-blend-mode: normal"><g stroke-linejoin="round"><path d="M50.16667,21.5v14.33333c-0.00035,1.89374 -0.75016,3.71037 -2.08561,5.05306c0,0 -19.41439,20.11092 -19.41439,45.11361c0,23.00031 15.22985,40.12739 17.86068,43h78.94531c2.63083,-2.87261 17.86068,-19.99969 17.86068,-43c0,-25.00269 -19.41439,-45.11361 -19.41439,-45.11361c-1.33546,-1.34269 -2.08526,-3.15932 -2.08561,-5.05306v-14.33333h14.33333v12.02376c3.4647,3.6127 21.5,23.13294 21.5,52.47624c0,27.6284 -16.57739,47.53476 -21.5,52.89616v11.60384h-14.33333v-7.16667h-14.33333v7.16667h-14.33333v-7.16667h-14.33333v7.16667h-14.33333v-7.16667h-14.33333v7.16667h-14.33333v-11.60384c-4.92261,-5.3614 -21.5,-25.26775 -21.5,-52.89616c0,-29.3433 18.0353,-48.86354 21.5,-52.47624v-12.02376zM93.16667,35.83333v50.16667h-14.33333v-50.16667zM93.16667,100.33333v14.33333h-14.33333v-14.33333z"></path></g><path d="M0,172v-172h172v172z" fill="none" stroke="none" stroke-linejoin="miter"></path><g stroke-linejoin="miter"><path d="M35.83333,21.5v12.02376c-3.4647,3.6127 -21.5,23.13294 -21.5,52.47624c0,27.6284 16.57739,47.53476 21.5,52.89616v11.60384h14.33333v-7.16667h14.33333v7.16667h14.33333v-7.16667h7.16667h7.16667v7.16667h14.33333v-7.16667h14.33333v7.16667h14.33333v-11.60384c4.92261,-5.3614 21.5,-25.26775 21.5,-52.89616c0,-29.3433 -18.0353,-48.86354 -21.5,-52.47624v-12.02376h-14.33333v14.33333c0.00036,1.89374 0.75016,3.71037 2.08561,5.05306c0,0 19.41439,20.11092 19.41439,45.11361c0,23.00031 -15.22985,40.12739 -17.86068,43h-39.47265h-39.47266c-2.63083,-2.87261 -17.86068,-19.99969 -17.86068,-43c0,-25.00269 19.41439,-45.11361 19.41439,-45.11361c1.33545,-1.34269 2.08526,-3.15932 2.08561,-5.05306v-14.33333zM78.83333,35.83333v50.16667h14.33333v-50.16667zM78.83333,100.33333v14.33333h14.33333v-14.33333z"></path></g>7</g></g></svg>