<svg width="269" height="186" viewBox="0 0 269 186" xmlns="http://www.w3.org/2000/svg">
<path d="M265.171 84.577L185.171 4.577C180.29 -0.304002 172.374 -0.304002 167.493 4.577C162.611 9.459 162.611 17.373 167.493 22.255L226.154 80.916H12.5C5.597 80.916 0 86.513 0 93.416C0 100.318 5.597 105.916 12.5 105.916H226.154L167.495 164.577C162.613 169.459 162.613 177.373 167.495 182.255C169.935 184.694 173.135 185.916 176.334 185.916C179.533 185.916 182.732 184.694 185.173 182.255L265.171 102.255C270.053 97.373 270.053 89.459 265.171 84.577Z"/>
</svg>
