<svg width="45" height="53" viewBox="0 0 45 53" xmlns="http://www.w3.org/2000/svg">
    <path fill-rule="evenodd" clip-rule="evenodd" d="M36.1687 13.1964C36.1687 20.473 30.0368 26.3929 22.5 26.3929C14.963 26.3929 8.83132 20.4731 8.83132 13.1965C8.83132 5.91989 14.9632 0 22.5 0C30.0368 0 36.1687 5.91977 36.1687 13.1964ZM30.8432 13.1965C30.8432 8.7549 27.1004 5.14148 22.5 5.14148C17.8995 5.14148 14.1568 8.75503 14.1568 13.1965C14.1568 17.638 17.8995 21.2515 22.5 21.2515C27.1005 21.2515 30.8432 17.6381 30.8432 13.1965ZM0 50.4293C0 38.4513 10.0934 28.7065 22.5 28.7065C34.9066 28.7065 45 38.4513 45 50.4293V53H0V50.4293ZM22.4999 33.848C13.935 33.848 6.81444 39.9315 5.5314 47.8585H39.4683C38.1853 39.9315 31.0648 33.848 22.4999 33.848Z"/>
</svg>

